<mxfile host="app.diagrams.net" modified="2023-04-24T23:34:49.462Z" agent="Mozilla/5.0 (X11; Linux x86_64) AppleWebKit/537.36 (KHTML, like Gecko) Chrome/112.0.0.0 Safari/537.36" etag="VvbZ0HXqBOt_lKYYErwv" version="21.2.1" type="device">
  <diagram name="Página-1" id="19Vy41v5n2b_xbUv3eGG">
    <mxGraphModel dx="880" dy="483" grid="1" gridSize="10" guides="1" tooltips="1" connect="1" arrows="1" fold="1" page="1" pageScale="1" pageWidth="827" pageHeight="1169" math="0" shadow="0">
      <root>
        <mxCell id="0" />
        <mxCell id="1" parent="0" />
        <mxCell id="uMJtlKkwBYt2SvI9Hybp-2" value="CADASTRO DA EMPRESA" style="rounded=0;whiteSpace=wrap;html=1;" vertex="1" parent="1">
          <mxGeometry x="240" y="40" width="326" height="40" as="geometry" />
        </mxCell>
        <mxCell id="uMJtlKkwBYt2SvI9Hybp-3" value="" style="rounded=1;whiteSpace=wrap;html=1;" vertex="1" parent="1">
          <mxGeometry x="120" y="130" width="280" height="30" as="geometry" />
        </mxCell>
        <mxCell id="uMJtlKkwBYt2SvI9Hybp-4" value="CNPJ" style="text;html=1;strokeColor=none;fillColor=none;align=center;verticalAlign=middle;whiteSpace=wrap;rounded=0;" vertex="1" parent="1">
          <mxGeometry x="40" y="115" width="90" height="60" as="geometry" />
        </mxCell>
        <mxCell id="uMJtlKkwBYt2SvI9Hybp-5" value="" style="rounded=1;whiteSpace=wrap;html=1;" vertex="1" parent="1">
          <mxGeometry x="520" y="130" width="280" height="30" as="geometry" />
        </mxCell>
        <mxCell id="uMJtlKkwBYt2SvI9Hybp-6" value="INSCRIÇÃO ESTADUAL" style="text;html=1;strokeColor=none;fillColor=none;align=center;verticalAlign=middle;whiteSpace=wrap;rounded=0;" vertex="1" parent="1">
          <mxGeometry x="450" y="130" width="60" height="30" as="geometry" />
        </mxCell>
        <mxCell id="uMJtlKkwBYt2SvI9Hybp-7" value="" style="rounded=1;whiteSpace=wrap;html=1;" vertex="1" parent="1">
          <mxGeometry x="120" y="170" width="680" height="30" as="geometry" />
        </mxCell>
        <mxCell id="uMJtlKkwBYt2SvI9Hybp-9" value="RAZÃO SOCIAL" style="text;html=1;strokeColor=none;fillColor=none;align=center;verticalAlign=middle;whiteSpace=wrap;rounded=0;" vertex="1" parent="1">
          <mxGeometry x="55" y="170" width="60" height="30" as="geometry" />
        </mxCell>
        <mxCell id="uMJtlKkwBYt2SvI9Hybp-10" value="" style="rounded=1;whiteSpace=wrap;html=1;" vertex="1" parent="1">
          <mxGeometry x="120" y="210" width="680" height="30" as="geometry" />
        </mxCell>
        <mxCell id="uMJtlKkwBYt2SvI9Hybp-11" value="NOME FANTASIA" style="text;html=1;strokeColor=none;fillColor=none;align=center;verticalAlign=middle;whiteSpace=wrap;rounded=0;" vertex="1" parent="1">
          <mxGeometry x="55" y="210" width="60" height="30" as="geometry" />
        </mxCell>
        <mxCell id="uMJtlKkwBYt2SvI9Hybp-13" value="CEP" style="text;html=1;strokeColor=none;fillColor=none;align=center;verticalAlign=middle;whiteSpace=wrap;rounded=0;" vertex="1" parent="1">
          <mxGeometry x="55" y="250" width="60" height="30" as="geometry" />
        </mxCell>
        <mxCell id="uMJtlKkwBYt2SvI9Hybp-14" value="" style="rounded=1;whiteSpace=wrap;html=1;" vertex="1" parent="1">
          <mxGeometry x="120" y="250" width="120" height="30" as="geometry" />
        </mxCell>
        <mxCell id="uMJtlKkwBYt2SvI9Hybp-15" value="CIDADE" style="text;html=1;strokeColor=none;fillColor=none;align=center;verticalAlign=middle;whiteSpace=wrap;rounded=0;" vertex="1" parent="1">
          <mxGeometry x="250" y="250" width="60" height="30" as="geometry" />
        </mxCell>
        <mxCell id="uMJtlKkwBYt2SvI9Hybp-16" value="" style="rounded=1;whiteSpace=wrap;html=1;" vertex="1" parent="1">
          <mxGeometry x="320" y="250" width="240" height="30" as="geometry" />
        </mxCell>
        <mxCell id="uMJtlKkwBYt2SvI9Hybp-17" value="UF" style="text;html=1;strokeColor=none;fillColor=none;align=center;verticalAlign=middle;whiteSpace=wrap;rounded=0;" vertex="1" parent="1">
          <mxGeometry x="570" y="250" width="60" height="30" as="geometry" />
        </mxCell>
        <mxCell id="uMJtlKkwBYt2SvI9Hybp-19" value="" style="rounded=1;whiteSpace=wrap;html=1;" vertex="1" parent="1">
          <mxGeometry x="640" y="250" width="160" height="30" as="geometry" />
        </mxCell>
        <mxCell id="uMJtlKkwBYt2SvI9Hybp-20" value="" style="rounded=1;whiteSpace=wrap;html=1;" vertex="1" parent="1">
          <mxGeometry x="120" y="290" width="680" height="30" as="geometry" />
        </mxCell>
        <mxCell id="uMJtlKkwBYt2SvI9Hybp-21" value="ENDEREÇO" style="text;html=1;strokeColor=none;fillColor=none;align=center;verticalAlign=middle;whiteSpace=wrap;rounded=0;" vertex="1" parent="1">
          <mxGeometry x="50" y="290" width="60" height="30" as="geometry" />
        </mxCell>
        <mxCell id="uMJtlKkwBYt2SvI9Hybp-22" value="" style="rounded=1;whiteSpace=wrap;html=1;" vertex="1" parent="1">
          <mxGeometry x="120" y="330" width="280" height="30" as="geometry" />
        </mxCell>
        <mxCell id="uMJtlKkwBYt2SvI9Hybp-23" value="NÚMERO" style="text;html=1;strokeColor=none;fillColor=none;align=center;verticalAlign=middle;whiteSpace=wrap;rounded=0;" vertex="1" parent="1">
          <mxGeometry x="50" y="330" width="60" height="30" as="geometry" />
        </mxCell>
        <mxCell id="uMJtlKkwBYt2SvI9Hybp-24" value="" style="rounded=1;whiteSpace=wrap;html=1;" vertex="1" parent="1">
          <mxGeometry x="520" y="330" width="280" height="30" as="geometry" />
        </mxCell>
        <mxCell id="uMJtlKkwBYt2SvI9Hybp-25" value="BAIRRO" style="text;html=1;strokeColor=none;fillColor=none;align=center;verticalAlign=middle;whiteSpace=wrap;rounded=0;" vertex="1" parent="1">
          <mxGeometry x="460" y="330" width="60" height="30" as="geometry" />
        </mxCell>
        <mxCell id="uMJtlKkwBYt2SvI9Hybp-26" value="" style="rounded=1;whiteSpace=wrap;html=1;" vertex="1" parent="1">
          <mxGeometry x="120" y="370" width="280" height="30" as="geometry" />
        </mxCell>
        <mxCell id="uMJtlKkwBYt2SvI9Hybp-27" value="" style="rounded=1;whiteSpace=wrap;html=1;" vertex="1" parent="1">
          <mxGeometry x="520" y="370" width="280" height="30" as="geometry" />
        </mxCell>
        <mxCell id="uMJtlKkwBYt2SvI9Hybp-28" value="" style="rounded=1;whiteSpace=wrap;html=1;" vertex="1" parent="1">
          <mxGeometry x="120" y="410" width="280" height="30" as="geometry" />
        </mxCell>
        <mxCell id="uMJtlKkwBYt2SvI9Hybp-29" value="TELEFONE" style="text;html=1;strokeColor=none;fillColor=none;align=center;verticalAlign=middle;whiteSpace=wrap;rounded=0;" vertex="1" parent="1">
          <mxGeometry x="50" y="370" width="60" height="30" as="geometry" />
        </mxCell>
        <mxCell id="uMJtlKkwBYt2SvI9Hybp-30" value="SITE" style="text;html=1;strokeColor=none;fillColor=none;align=center;verticalAlign=middle;whiteSpace=wrap;rounded=0;" vertex="1" parent="1">
          <mxGeometry x="55" y="410" width="60" height="30" as="geometry" />
        </mxCell>
        <mxCell id="uMJtlKkwBYt2SvI9Hybp-31" value="EMAIL" style="text;html=1;strokeColor=none;fillColor=none;align=center;verticalAlign=middle;whiteSpace=wrap;rounded=0;" vertex="1" parent="1">
          <mxGeometry x="460" y="370" width="60" height="30" as="geometry" />
        </mxCell>
      </root>
    </mxGraphModel>
  </diagram>
</mxfile>
